<?xml version="1.0" standalone="no"?>
<!DOCTYPE svg PUBLIC "-//W3C//DTD SVG 20010904//EN"
 "http://www.w3.org/TR/2001/REC-SVG-20010904/DTD/svg10.dtd">
<svg version="1.0" xmlns="http://www.w3.org/2000/svg"
 width="2480.000000pt" height="2480.000000pt" viewBox="0 0 2480.000000 2480.000000"
 preserveAspectRatio="xMidYMid meet">
<metadata>
Created by potrace 1.11, written by Peter Selinger 2001-2013
</metadata>
<g transform="translate(0.000000,2480.000000) scale(0.100000,-0.100000)"
fill="#000000" stroke="none">
<path d="M15119 19005 c-1 -15 -1 -128 0 -141 1 -7 22 -12 54 -13 28 0 70 -3
92 -6 342 -49 523 -242 552 -592 13 -144 7 -4158 -5 -4228 -19 -101 -22 -114
-43 -168 -46 -117 -109 -198 -203 -258 -54 -36 -145 -76 -191 -85 -11 -2 -31
-6 -45 -9 -14 -3 -56 -8 -95 -11 -131 -10 -118 -2 -118 -75 1 -35 1 -70 2 -76
1 -10 249 -13 1206 -13 1141 0 1205 1 1206 18 1 9 2 44 2 77 l1 60 -54 3
c-313 15 -509 136 -598 370 -53 136 -54 157 -53 1180 0 521 0 968 0 994 l1 47
153 -4 c145 -3 245 -11 276 -21 8 -3 30 -7 50 -10 59 -9 180 -55 245 -91 198
-112 356 -285 457 -501 21 -46 39 -86 39 -88 0 -2 13 -32 29 -66 16 -35 92
-205 169 -378 77 -173 151 -340 165 -370 262 -580 365 -903 368 -1158 l1 -62
969 0 c768 0 969 3 970 13 1 14 1 129 0 138 -1 3 -20 6 -43 7 -323 13 -636
233 -904 637 -98 146 -139 224 -468 882 -173 345 -337 662 -365 703 -52 80
-149 186 -216 237 -99 76 -249 139 -355 149 -30 3 -56 6 -57 8 -2 1 45 13 105
25 413 87 751 285 996 586 206 253 301 517 300 835 -1 156 -15 248 -64 415
-22 74 -91 209 -154 304 -240 359 -677 634 -1126 711 -36 6 -76 13 -90 15 -89
16 -320 18 -1663 19 -991 1 -1497 -2 -1498 -9z m2336 -190 c278 -45 476 -118
670 -247 110 -73 279 -242 352 -353 139 -211 197 -413 197 -680 -1 -354 -119
-634 -371 -876 -210 -201 -465 -328 -763 -379 -36 -6 -76 -14 -90 -17 -14 -2
-159 -7 -322 -10 l-298 -5 -1 48 c-1 58 0 2466 0 2508 l1 28 293 -5 c160 -3
310 -8 332 -12z"/>
<path d="M4069 19008 c-1 -4 -1 -88 0 -124 l1 -31 93 -6 c281 -18 470 -151
556 -392 15 -41 30 -116 38 -184 9 -74 9 -4150 0 -4220 -26 -201 -113 -361
-249 -454 -40 -28 -223 -107 -223 -97 0 1 -20 -1 -45 -5 -25 -3 -70 -8 -100
-10 -30 -2 -59 -4 -65 -4 -8 -1 -11 -84 -6 -143 1 -5 359 -8 796 -8 l796 0 -3
72 -3 72 -47 2 c-251 10 -450 108 -547 268 -41 68 -78 168 -87 233 -3 26 -9
53 -13 58 -3 6 -6 986 -7 2178 0 1717 2 2165 12 2155 7 -7 51 -65 98 -128 46
-63 125 -169 174 -235 126 -168 615 -826 817 -1098 94 -126 244 -329 335 -451
91 -121 237 -318 325 -436 149 -200 583 -784 625 -840 10 -14 60 -81 111 -150
87 -119 190 -257 216 -290 7 -8 89 -118 183 -245 93 -126 252 -340 352 -475
101 -135 236 -317 301 -405 65 -88 139 -188 165 -222 l47 -62 151 -1 151 0 0
2443 c0 1343 3 2469 7 2502 16 135 64 266 130 350 51 66 97 103 181 144 105
51 184 69 325 75 l55 2 3 82 3 82 -799 0 -800 0 1 -76 c0 -46 5 -77 11 -79 6
-2 48 -6 94 -9 287 -18 488 -161 566 -401 39 -123 39 -113 41 -1762 l2 -1602
-30 37 c-16 20 -88 116 -160 212 -73 96 -135 179 -140 185 -4 5 -31 42 -59 80
-29 39 -56 75 -60 80 -10 12 -411 551 -488 656 -30 40 -118 160 -195 264 -77
105 -170 230 -205 280 -36 49 -70 97 -77 105 -35 43 -573 790 -685 950 -25 36
-97 138 -159 227 -63 89 -152 219 -199 288 -47 69 -118 170 -157 224 -108 148
-139 204 -163 299 l-11 42 -989 0 c-545 0 -990 -1 -991 -2z"/>
<path d="M11957 19003 c-3 -5 -37 -91 -75 -193 -39 -102 -143 -376 -232 -610
-89 -234 -198 -519 -241 -635 -44 -115 -86 -226 -94 -245 -18 -45 -165 -432
-216 -570 -22 -58 -43 -114 -48 -125 -10 -20 -160 -415 -212 -555 -15 -41 -53
-142 -85 -225 -31 -82 -65 -170 -74 -195 -51 -135 -436 -1149 -490 -1290 -132
-345 -160 -405 -238 -515 -160 -227 -370 -334 -677 -344 -18 -1 -20 -8 -20
-86 l0 -85 722 0 722 0 0 85 c0 80 -2 85 -22 86 -273 12 -411 85 -451 241 -27
106 -6 216 89 463 88 231 245 641 320 835 l66 175 992 -1 c546 -1 999 -2 1007
-3 9 0 22 -18 29 -38 7 -21 19 -51 26 -68 8 -16 28 -66 45 -110 18 -44 38 -93
45 -110 7 -16 59 -145 115 -285 56 -140 108 -268 116 -285 7 -16 27 -66 44
-110 17 -44 35 -89 40 -100 33 -70 62 -198 65 -280 1 -50 -18 -128 -41 -162
-70 -108 -187 -153 -425 -162 -13 -1 -16 -16 -17 -86 l-1 -85 1168 0 1168 0 1
85 c0 47 -1 85 -2 85 0 1 -28 3 -61 6 -203 19 -388 106 -521 246 -116 122
-185 238 -284 478 -78 190 -121 292 -135 325 -7 17 -30 71 -50 120 -63 153
-426 1028 -440 1060 -7 17 -45 107 -84 200 -38 94 -134 323 -211 510 -78 187
-196 471 -261 630 -66 160 -126 304 -134 320 -7 17 -30 71 -50 120 -20 50 -43
104 -50 120 -7 17 -68 163 -135 325 -67 162 -143 347 -170 410 -26 63 -69 167
-95 230 -27 63 -67 160 -90 215 -23 55 -50 121 -61 147 l-19 48 -132 0 c-72 0
-134 -3 -136 -7z m-73 -1743 c103 -256 191 -474 196 -485 5 -11 70 -171 144
-355 111 -278 183 -456 296 -735 37 -92 54 -133 66 -160 21 -50 54 -135 54
-140 0 -3 -421 -5 -936 -5 -888 0 -936 1 -929 18 4 9 72 188 152 397 80 209
151 394 158 410 8 17 21 53 30 80 9 28 23 64 30 80 8 17 32 77 53 135 35 94
449 1179 474 1240 10 24 10 24 18 5 4 -11 92 -229 194 -485z"/>
<path d="M12118 11595 c-2 -1 -50 -5 -108 -9 -58 -4 -118 -9 -135 -11 -16 -3
-55 -7 -85 -10 -175 -20 -503 -104 -697 -180 -862 -338 -1496 -1023 -1743
-1882 -31 -109 -74 -307 -86 -398 -3 -27 -7 -52 -9 -55 -2 -3 -6 -45 -10 -95
-4 -49 -9 -106 -11 -125 -6 -50 -5 -438 1 -485 2 -22 7 -65 10 -95 12 -112 17
-147 36 -245 71 -363 202 -683 404 -985 120 -180 199 -275 375 -450 237 -238
419 -375 700 -528 154 -84 456 -199 620 -237 83 -19 277 -55 325 -61 33 -3 69
-8 80 -10 112 -23 639 -22 750 1 11 2 40 7 65 10 25 3 70 9 100 15 30 5 66 11
80 14 14 2 66 14 115 26 50 12 97 23 105 25 8 2 51 15 95 30 44 15 85 28 90
30 6 1 19 6 30 10 11 5 43 17 70 27 85 33 104 41 244 110 170 84 219 112 356
203 313 208 563 457 778 777 233 345 380 698 452 1083 18 95 35 213 40 275 4
41 9 91 11 110 5 40 5 412 0 480 -6 81 -23 251 -31 300 -2 14 -7 45 -10 70 -4
24 -8 47 -10 50 -2 3 -6 26 -10 50 -3 25 -11 63 -17 85 -5 22 -12 51 -14 65
-12 66 -83 284 -131 400 -155 376 -377 688 -679 955 -386 342 -845 539 -1464
630 -14 2 -56 6 -95 10 -38 3 -88 9 -110 11 -41 6 -472 13 -477 9z m347 -230
c346 -48 624 -184 865 -425 78 -77 220 -249 220 -264 0 -4 8 -15 18 -26 33
-37 152 -257 205 -380 79 -184 134 -351 172 -520 24 -107 24 -106 40 -200 24
-131 30 -171 41 -285 3 -33 7 -71 10 -85 22 -141 22 -720 -1 -915 -6 -52 -21
-168 -30 -232 -43 -304 -165 -683 -317 -987 -135 -271 -260 -448 -448 -636
-406 -405 -888 -560 -1396 -446 -57 12 -211 69 -274 101 -66 33 -209 120 -220
134 -3 3 -36 32 -75 63 -296 239 -594 703 -743 1154 -53 162 -108 381 -126
509 -4 23 -8 50 -10 61 -2 11 -7 47 -11 79 -4 33 -9 68 -11 78 -25 137 -24
700 1 912 1 17 6 56 9 88 10 91 32 225 60 362 26 126 94 359 143 485 141 370
318 656 551 894 337 343 696 498 1137 491 77 -2 163 -6 190 -10z"/>
<path d="M3739 11483 c-3 -48 -2 -134 2 -137 2 -2 42 -6 89 -10 156 -11 315
-69 407 -149 26 -23 51 -46 55 -52 3 -5 16 -21 29 -35 31 -35 86 -157 106
-237 17 -64 18 -202 18 -2208 l0 -2140 -22 -83 c-12 -46 -37 -112 -54 -148
-36 -73 -123 -168 -190 -207 -61 -36 -168 -75 -226 -83 -26 -3 -50 -8 -53 -9
-3 -2 -40 -5 -83 -6 -61 -3 -77 -6 -78 -19 -1 -18 -1 -110 0 -128 1 -19 3631
-16 3750 3 233 39 413 106 589 219 158 101 329 259 433 400 32 45 64 87 70 94
24 30 118 232 143 307 50 157 73 318 71 493 -3 180 -23 295 -77 457 -94 283
-292 543 -569 748 -61 46 -211 130 -291 164 -196 82 -358 113 -611 118 -98 2
-180 5 -183 8 -3 2 22 7 55 11 231 26 515 137 714 280 314 224 514 539 555
871 8 68 8 266 -1 338 -32 266 -163 517 -377 723 -87 84 -109 101 -210 168
-152 100 -297 165 -470 210 -210 55 -154 54 -1937 55 -1574 1 -1653 0 -1654
-16z m2646 -166 c78 -7 83 -8 181 -33 425 -106 734 -494 790 -992 10 -85 10
-276 1 -364 -54 -507 -385 -911 -827 -1007 -101 -22 -185 -25 -625 -26 l-460
0 -1 1210 c-1 666 0 1212 2 1215 3 7 854 4 939 -3z m440 -2601 c17 -3 53 -11
80 -17 376 -81 680 -415 800 -877 14 -52 28 -118 31 -146 4 -28 10 -73 14
-100 11 -69 10 -360 -1 -426 -5 -30 -13 -77 -19 -105 -6 -27 -12 -59 -14 -70
-9 -47 -69 -193 -107 -264 -60 -110 -109 -174 -213 -276 -221 -217 -539 -382
-826 -429 -135 -22 -196 -27 -325 -27 -141 0 -173 3 -282 25 -264 54 -438 211
-503 451 -11 40 -14 263 -15 1162 l-1 1111 675 -3 c372 -1 690 -5 706 -9z"/>
<path d="M15409 11490 c0 -5 -1 -40 -2 -77 -1 -61 1 -68 19 -69 91 -5 191 -17
206 -25 10 -5 18 -7 18 -5 0 10 126 -40 172 -67 40 -23 125 -100 155 -139 58
-77 107 -218 120 -343 9 -90 9 -4131 0 -4210 -16 -153 -74 -296 -155 -386
-108 -120 -286 -191 -489 -193 -31 -1 -43 -5 -44 -16 0 -8 -2 -43 -2 -78 l-2
-62 798 0 798 0 -3 73 -3 72 -35 1 c-139 5 -251 30 -352 81 -157 80 -247 208
-295 417 -15 64 -16 282 -18 2239 -1 1716 2 2165 11 2155 10 -10 265 -350 367
-489 9 -13 86 -116 170 -229 231 -312 676 -910 851 -1145 86 -115 231 -311
323 -435 92 -124 171 -229 176 -235 6 -8 296 -397 483 -650 10 -14 42 -56 69
-93 533 -716 670 -901 763 -1027 61 -82 115 -154 120 -160 4 -5 46 -62 92
-125 47 -63 89 -120 95 -126 5 -6 62 -82 125 -168 l114 -156 152 0 151 0 0
2433 c0 1337 3 2464 7 2503 15 163 79 313 174 408 99 100 259 160 447 170 l70
3 3 82 3 81 -799 0 -800 0 2 -77 c1 -87 -13 -76 117 -87 95 -7 218 -41 290
-79 34 -17 90 -59 123 -92 87 -86 131 -178 172 -360 9 -40 12 -3238 3 -3228
-14 16 -922 1231 -951 1273 -21 29 -25 36 -324 441 -331 449 -860 1186 -1057
1472 -6 10 -68 100 -138 200 -69 100 -147 211 -173 247 -60 81 -115 189 -125
244 l-7 41 -992 3 c-659 1 -992 -1 -993 -8z"/>
</g>
</svg>
